# xmcd CD database file
#
# Track frame offsets:
#	150
#	21244
#	37912
#	56193
#	75926
#	95548
#	118788
#	131614
#	151201
#	164875
#	184139
#	204532
#	230654
#	251846
#	271029
#	286596
#
# Disc length: 4073 seconds
#
# Revision: 1
# Processed by: cddbd v1.5.2PL0 Copyright (c) Steve Scherf et al.
# Submitted via: CDex 1.51
#
DISCID=db0fe710
DTITLE=Salsa - Hot Latin Music - CD 2
DYEAR=2001
DGENRE=Salsa
TTITLE0=Mauel Almarez - Sueno Su Boca
TTITLE1=Antonio Alvarez - Fruta Fresca
TTITLE2=Grupo Ramirez - Billirubina
TTITLE3=Los Gardenias - La Charanga
TTITLE4=Victoria De Villa - La Colita
TTITLE5=Laura Lopez - La Soppa En Botella
TTITLE6=Raul Ramirez - Compadre Pedro Juan
TTITLE7=Mayolos - Mar De Amores
TTITLE8=Laura Lopez and Raul Ramirez - Caballero Y Damas
TTITLE9=Los Gardenias - Chan Chan
TTITLE10=Siembra - Tu Manera De Bailar
TTITLE11=Grupo Ramirez - Tu Sonrise
TTITLE12=Enrico Fernandez - Salome
TTITLE13=Angela D'Amato and Mario - Dame
TTITLE14=Victoria De Villa - No Me Dejes De Querer
TTITLE15=Los Gardenias - Son De La Loma
EXTD=YEAR: 2001
EXTT0=
EXTT1=
EXTT2=
EXTT3=
EXTT4=
EXTT5=
EXTT6=
EXTT7=
EXTT8=
EXTT9=
EXTT10=
EXTT11=
EXTT12=
EXTT13=
EXTT14=
EXTT15=
PLAYORDER=
